<svg xmlns="http://www.w3.org/2000/svg" width="265.40509033203125" height="281.840576171875" viewBox="-10.770511627197266 -53.146202087402344 265.40509033203125 281.840576171875"><title>Neo4j Graph Visualization</title><desc>Created using Neo4j (http://www.neo4j.com/)</desc><g class="layer relationships"><g class="relationship" transform="translate(142.79243260271568 167.37401407952362) rotate(332.920282180503)"><path class="outline" fill="#A5ABB6" stroke="none" d="M 25 0.5 L 25.3510629663388 0.5 L 25.3510629663388 -0.5 L 25 -0.5 Z M 60.6909067163388 0.5 L 61.0419696826776 0.5 L 61.0419696826776 3.5 L 68.0419696826776 0 L 61.0419696826776 -3.5 L 61.0419696826776 -0.5 L 60.6909067163388 -0.5 Z"/><text text-anchor="middle" pointer-events="none" font-size="8px" fill="#000000" x="43.0209848413388" y="3" font-family="sans-serif">CLUB…</text></g><g class="relationship" transform="translate(142.79243260271568 167.37401407952362) rotate(287.407575254653)"><path class="outline" fill="#A5ABB6" stroke="none" d="M 25 0.5 L 26.18931033921166 0.5 L 26.18931033921166 -0.5 L 25 -0.5 Z M 98.43540408921166 0.5 L 99.62471442842332 0.5 L 99.62471442842332 3.5 L 106.62471442842332 0 L 99.62471442842332 -3.5 L 99.62471442842332 -0.5 L 98.43540408921166 -0.5 Z"/><text text-anchor="middle" pointer-events="none" font-size="8px" fill="#000000" x="62.31235721421166" y="3" font-family="sans-serif">CLUBS_BELON…</text></g><g class="relationship" transform="translate(225.63458401953605 125.01854133909836) rotate(197.0274094954957)"><path class="outline" fill="#A5ABB6" stroke="none" d="M 25 0.5 L 27.3756239608811 0.5 L 27.3756239608811 -0.5 L 25 -0.5 Z M 94.7310927108811 0.5 L 97.1067166717622 0.5 L 97.1067166717622 3.5 L 104.1067166717622 0 L 97.1067166717622 -3.5 L 97.1067166717622 -0.5 L 94.7310927108811 -0.5 Z"/><text text-anchor="middle" pointer-events="none" font-size="8px" fill="#000000" x="61.0533583358811" y="3" transform="rotate(180 61.0533583358811 0)" font-family="sans-serif">LEAGUES_HA…</text></g><g class="relationship" transform="translate(182.1701973245647 41.77760850247417) rotate(422.4286152076767)"><path class="outline" fill="#A5ABB6" stroke="none" d="M 25 0.5 L 25.782729302226883 0.5 L 25.782729302226883 -0.5 L 25 -0.5 Z M 61.12257305222688 0.5 L 61.90530235445377 0.5 L 61.90530235445377 3.5 L 68.90530235445377 0 L 61.90530235445377 -3.5 L 61.90530235445377 -0.5 L 61.12257305222688 -0.5 Z"/><text text-anchor="middle" pointer-events="none" font-size="8px" fill="#000000" x="43.45265117722688" y="3" font-family="sans-serif">CLUB…</text></g><g class="relationship" transform="translate(102.18728867292673 87.21233072007851) rotate(507.8142224247062)"><path class="outline" fill="#A5ABB6" stroke="none" d="M 25 0.5 L 25.177541777124567 0.5 L 25.177541777124567 -0.5 L 25 -0.5 Z M 67.02519802712456 0.5 L 67.20273980424913 0.5 L 67.20273980424913 3.5 L 74.20273980424913 0 L 67.20273980424913 -3.5 L 67.20273980424913 -0.5 L 67.02519802712456 -0.5 Z"/><text text-anchor="middle" pointer-events="none" font-size="8px" fill="#000000" x="46.10136990212457" y="3" transform="rotate(180 46.10136990212457 0)" font-family="sans-serif">MATCH…</text></g><g class="relationship" transform="translate(102.18728867292673 87.21233072007851) rotate(471.3890819284198)"><path class="outline" fill="#A5ABB6" stroke="none" d="M 25 0.5 L 27.23121265569266 0.5 L 27.23121265569266 -0.5 L 25 -0.5 Z M 86.57105640569266 0.5 L 88.80226906138532 0.5 L 88.80226906138532 3.5 L 95.80226906138532 0 L 88.80226906138532 -3.5 L 88.80226906138532 -0.5 L 86.57105640569266 -0.5 Z"/><text text-anchor="middle" pointer-events="none" font-size="8px" fill="#000000" x="56.90113453069266" y="3" transform="rotate(180 56.90113453069266 0)" font-family="sans-serif">POINTS_FO…</text></g><g class="relationship" transform="translate(102.18728867292673 87.21233072007851) rotate(265.35327999332225)"><path class="outline" fill="#A5ABB6" stroke="none" d="M 25 0.5 L 25.214442917373518 0.5 L 25.214442917373518 -0.5 L 25 -0.5 Z M 79.51131791737352 0.5 L 79.72576083474704 0.5 L 79.72576083474704 3.5 L 86.72576083474704 0 L 79.72576083474704 -3.5 L 79.72576083474704 -0.5 L 79.51131791737352 -0.5 Z"/><text text-anchor="middle" pointer-events="none" font-size="8px" fill="#000000" x="52.36288041737352" y="3" transform="rotate(180 52.36288041737352 0)" font-family="sans-serif">TOURNAM…</text></g><g class="relationship" transform="translate(102.18728867292673 87.21233072007851) rotate(423.1359366687836)"><path class="outline" fill="#A5ABB6" stroke="none" d="M 25 0.5 L 26.28310830226232 0.5 L 26.28310830226232 -0.5 L 25 -0.5 Z M 56.57607705226232 0.5 L 57.85918535452464 0.5 L 57.85918535452464 3.5 L 64.85918535452464 0 L 57.85918535452464 -3.5 L 57.85918535452464 -0.5 L 56.57607705226232 -0.5 Z"/><text text-anchor="middle" pointer-events="none" font-size="8px" fill="#000000" x="41.42959267726232" y="3" font-family="sans-serif">MAT…</text></g><g class="relationship" transform="translate(93.13619608745495 -24.146204458471274) rotate(396.5175101759165)"><path class="outline" fill="#A5ABB6" stroke="none" d="M 25 0.5 L 26.66718264240854 0.5 L 26.66718264240854 -0.5 L 25 -0.5 Z M 77.11640139240853 0.5 L 78.78358403481708 0.5 L 78.78358403481708 3.5 L 85.78358403481708 0 L 78.78358403481708 -3.5 L 78.78358403481708 -0.5 L 77.11640139240853 -0.5 Z"/><text text-anchor="middle" pointer-events="none" font-size="8px" fill="#000000" x="51.89179201740854" y="3" font-family="sans-serif">IN_WORL…</text></g><g class="relationship" transform="translate(18.22948874467632 140.05427822277215) rotate(372.3705101353379)"><path class="outline" fill="#A5ABB6" stroke="none" d="M 25 0.5 L 27.324351741193453 0.5 L 27.324351741193453 -0.5 L 25 -0.5 Z M 93.19935174119345 0.5 L 95.5237034823869 0.5 L 95.5237034823869 3.5 L 102.5237034823869 0 L 95.5237034823869 -3.5 L 95.5237034823869 -0.5 L 93.19935174119345 -0.5 Z"/><text text-anchor="middle" pointer-events="none" font-size="8px" fill="#000000" x="60.26185174119345" y="3" font-family="sans-serif">PLAYERS_US…</text></g></g><g class="layer nodes"><g class="node" transform="translate(142.79243260271568,167.37401407952362)"><circle class="outline" cx="0" cy="0" r="25" fill="#FFC454" stroke="#d7a013" stroke-width="2px"/><text text-anchor="middle" pointer-events="none" font-family="sans-serif" dy="1.5625" font-size="25" fill="#604A0E"/><text text-anchor="middle" pointer-events="none" y="5" font-size="10px" fill="#604A0E" font-family="sans-serif"> 0</text></g><g class="node" transform="translate(225.63458401953605,125.01854133909836)"><circle class="outline" cx="0" cy="0" r="25" fill="#DA7194" stroke="#cc3c6c" stroke-width="2px"/><text text-anchor="middle" pointer-events="none" font-family="sans-serif" dy="1.5625" font-size="25" fill="#FFFFFF"/><text text-anchor="middle" pointer-events="none" y="5" font-size="10px" fill="#FFFFFF" font-family="sans-serif"> Leagues</text></g><g class="node" transform="translate(182.1701973245647,41.77760850247417)"><circle class="outline" cx="0" cy="0" r="25" fill="#569480" stroke="#447666" stroke-width="2px"/><text text-anchor="middle" pointer-events="none" font-family="sans-serif" dy="1.5625" font-size="25" fill="#FFFFFF"/><text text-anchor="middle" pointer-events="none" y="5" font-size="10px" fill="#FFFFFF" font-family="sans-serif"> Country</text></g><g class="node" transform="translate(102.18728867292673,87.21233072007851)"><circle class="outline" cx="0" cy="0" r="25" fill="#A5ABB6" stroke="#9AA1AC" stroke-width="2px"/><text text-anchor="middle" pointer-events="none" font-family="sans-serif" dy="1.5625" font-size="25" fill="#FFFFFF"/><text text-anchor="middle" pointer-events="none" y="5" font-size="10px" fill="#FFFFFF" font-family="sans-serif">  Year</text></g><g class="node" transform="translate(93.13619608745495,-24.146204458471274)"><circle class="outline" cx="0" cy="0" r="25" fill="#A5ABB6" stroke="#9AA1AC" stroke-width="2px"/><text text-anchor="middle" pointer-events="none" font-family="sans-serif" dy="1.5625" font-size="25" fill="#FFFFFF"/><text text-anchor="middle" pointer-events="none" y="5" font-size="10px" fill="#FFFFFF" font-family="sans-serif"> World-cup</text></g><g class="node" transform="translate(18.22948874467632,140.05427822277215)"><circle class="outline" cx="0" cy="0" r="25" fill="#A5ABB6" stroke="#9AA1AC" stroke-width="2px"/><text text-anchor="middle" pointer-events="none" font-family="sans-serif" dy="1.5625" font-size="25" fill="#FFFFFF"/><text text-anchor="middle" pointer-events="none" y="5" font-size="10px" fill="#FFFFFF" font-family="sans-serif"> player</text></g><g class="node" transform="translate(58.13077856050922,199.69438318665553)"><circle class="outline" cx="0" cy="0" r="25" fill="#A5ABB6" stroke="#9AA1AC" stroke-width="2px"/><text text-anchor="middle" pointer-events="none" font-family="sans-serif" dy="1.5625" font-size="25" fill="#FFFFFF"/><text text-anchor="middle" pointer-events="none" y="5" font-size="10px" fill="#FFFFFF" font-family="sans-serif"> Points</text></g></g></svg>